<svg data-v-fde0c5aa="" xmlns="http://www.w3.org/2000/svg" viewBox="0 0 300 300" class="font"><!----><defs data-v-fde0c5aa=""><!----></defs><rect data-v-fde0c5aa="" fill="transparent" x="0" y="0" width="300px" height="300px" class="logo-background-square"></rect><defs data-v-fde0c5aa=""><linearGradient data-v-fde0c5aa="" gradientTransform="rotate(25)" id="c75bc519-113b-42fb-b8fd-81ce61bbaf5c" x1="0%" y1="0%" x2="100%" y2="0%"><stop data-v-fde0c5aa="" offset="0%" stop-color="#574851" stop-opacity="1"></stop><stop data-v-fde0c5aa="" offset="100%" stop-color="#95A8B1" stop-opacity="1"></stop></linearGradient></defs><g data-v-fde0c5aa="" id="5b8032e0-e720-400b-8108-1d55e139d266" fill="url(#c75bc519-113b-42fb-b8fd-81ce61bbaf5c)" transform="matrix(1.0396484068118188,0,0,1.0396484068118188,39.417796889706665,145.71145056977275)"><path d="M0.56 3.19L1.15 3.29L1.92 1.29L3.82 1.29L3.82 9.45L2.60 9.91L2.70 10.50L6.43 10.50L6.52 9.91L5.31 9.45L5.31 1.29L7.21 1.29L7.98 3.29L8.57 3.19L8.57 0.70L0.56 0.70ZM12.32 1.29L13.61 1.29C15.12 1.29 15.71 2.14 15.71 3.39C15.71 4.40 14.90 5.49 13.58 5.49L12.92 5.49L12.92 6.08L15.27 9.91L15.16 10.50L17.82 10.50L17.92 9.91L16.72 9.45L14.90 6.47L14.17 6.10C15.72 6.10 17.14 5.08 17.14 3.39C17.14 1.72 16.17 0.70 14.14 0.70L9.73 0.70L9.62 1.29L10.84 1.75L10.84 9.45L9.65 9.91L9.74 10.50L13.43 10.50L13.52 9.91L12.32 9.45ZM22.88 0.70L19.64 9.45L18.44 9.91L18.54 10.50L21.73 10.50L21.83 9.91L20.38 9.45L21.18 7.20L24.85 7.20L25.63 9.45L24.43 9.91L24.53 10.50L28.34 10.50L28.45 9.91L27.24 9.45L24.09 0.46ZM23.23 1.78L23.23 2.49L24.64 6.61L21.41 6.61ZM32.97 1.29C35.35 1.29 36.44 3.12 36.44 5.50C36.44 7.88 35.35 9.91 32.97 9.91L31.75 9.91L31.75 1.29ZM32.93 10.50C36.44 10.50 38.08 8.25 38.08 5.53C38.08 2.81 36.47 0.70 32.97 0.70L29.15 0.70L29.05 1.29L30.27 1.75L30.27 9.45L29.06 9.91L29.16 10.50ZM42.04 1.75L43.27 1.29L43.16 0.70L39.45 0.70L39.34 1.29L40.57 1.75L40.57 9.45L39.34 9.91L39.45 10.50L43.16 10.50L43.27 9.91L42.04 9.45ZM49.94 10.05C47.17 10.05 46.61 7.69 46.61 5.53C46.61 2.53 47.70 1.15 49.94 1.15C50.48 1.15 51.17 1.25 51.76 1.41L52.43 3.29L53.02 3.19L53.02 1.29C52.05 0.73 51.20 0.46 49.94 0.46C46.52 0.46 44.95 3.01 44.95 5.60C44.95 8.19 46.30 10.74 49.94 10.74C51.10 10.74 52.32 10.42 53.02 9.91L53.02 7.91L52.43 7.81L51.72 9.79C51.18 9.95 50.44 10.05 49.94 10.05ZM51.86-2.35L51.58-2.49L49.92-1.01L48.26-2.49L47.98-2.35L49.50-0.11L50.33-0.11ZM53.59 9.91L53.70 10.50L56.48 10.50L56.57 9.91L55.38 9.45L55.38 1.95L60.93 10.74L61.75 10.50L61.75 1.75L62.96 1.29L62.86 0.70L60.07 0.70L59.98 1.29L61.18 1.75L61.18 8.34L56.35 0.70L53.68 0.70L53.58 1.29L54.80 1.75L54.80 9.45ZM69.55 1.29L70.14 2.91L70.73 2.80L70.73 0.70L63.94 0.70L63.83 1.29L65.04 1.75L65.04 9.45L63.85 9.91L63.95 10.50L70.98 10.50L70.98 7.91L70.39 7.81L69.62 9.91L66.53 9.91L66.53 5.60L68.24 5.60L68.67 6.78L69.26 6.68L69.26 3.92L68.67 3.82L68.24 5.00L66.53 5.00L66.53 1.29ZM66.77-0.25L67.05-0.11L69.62-2.35L68.29-2.49ZM78.16 1.29L79.45 1.29C80.96 1.29 81.55 2.14 81.55 3.39C81.55 4.40 80.74 5.49 79.42 5.49L78.76 5.49L78.76 6.08L81.12 9.91L81.00 10.50L83.66 10.50L83.76 9.91L82.56 9.45L80.74 6.47L80.01 6.10C81.56 6.10 82.98 5.08 82.98 3.39C82.98 1.72 82.01 0.70 79.98 0.70L75.57 0.70L75.46 1.29L76.68 1.75L76.68 9.45L75.49 9.91L75.59 10.50L79.27 10.50L79.37 9.91L78.16 9.45ZM90.29 1.29L90.87 2.91L91.46 2.80L91.46 0.70L84.67 0.70L84.56 1.29L85.78 1.75L85.78 9.45L84.59 9.91L84.69 10.50L91.71 10.50L91.71 7.91L91.13 7.81L90.36 9.91L87.26 9.91L87.26 5.60L88.97 5.60L89.40 6.78L89.99 6.68L89.99 3.92L89.40 3.82L88.97 5.00L87.26 5.00L87.26 1.29ZM101.67 2.30L102.28 9.45L101.09 9.91L101.19 10.50L104.87 10.50L104.97 9.91L103.78 9.45L103.12 1.75L104.34 1.29L104.23 0.70L101.63 0.70L98.52 8.97L98.52 7.95L96.05 0.70L93.52 0.70L93.42 1.29L94.64 1.75L93.81 9.45L92.61 9.91L92.72 10.50L95.51 10.50L95.61 9.91L94.42 9.45L95.14 2.62L97.89 10.74L98.57 10.50ZM111.73 1.29L112.32 2.91L112.91 2.80L112.91 0.70L106.12 0.70L106.01 1.29L107.23 1.75L107.23 9.45L106.04 9.91L106.13 10.50L113.16 10.50L113.16 7.91L112.57 7.81L111.80 9.91L108.71 9.91L108.71 5.60L110.42 5.60L110.85 6.78L111.44 6.68L111.44 3.92L110.85 3.82L110.42 5.00L108.71 5.00L108.71 1.29ZM114.35 2.98C114.35 4.89 115.56 5.57 116.63 6.03C117.73 6.50 119.43 7.18 119.43 8.53C119.43 9.51 118.51 10.05 117.14 10.05C116.68 10.05 116.07 9.86 115.68 9.65L114.98 7.81L114.39 7.91L114.39 9.91C115.09 10.42 116.09 10.74 117.24 10.74C119.70 10.74 120.72 9.62 120.72 8.08C120.72 6.45 119.48 5.66 118.01 4.91C117.21 4.51 115.65 3.89 115.65 2.88C115.65 1.96 116.27 1.15 117.53 1.15C118.08 1.15 118.54 1.23 119.01 1.40L119.69 3.29L120.27 3.19L120.27 1.29C119.49 0.81 118.64 0.46 117.54 0.46C115.79 0.46 114.35 1.27 114.35 2.98ZM121.93 0.70L121.83 1.29L123.05 1.75L123.05 9.45L121.83 9.91L121.93 10.50L128.95 10.50L128.95 7.91L128.37 7.81L127.55 9.91L124.53 9.91L124.53 1.75L125.75 1.29L125.65 0.70ZM133.74 0.70L130.51 9.45L129.30 9.91L129.40 10.50L132.59 10.50L132.69 9.91L131.25 9.45L132.05 7.20L135.72 7.20L136.50 9.45L135.30 9.91L135.39 10.50L139.20 10.50L139.31 9.91L138.11 9.45L134.96 0.46ZM134.09 1.78L134.09 2.49L135.51 6.61L132.27 6.61ZM133.48-0.25L133.76-0.11L136.33-2.35L135.00-2.49ZM152.39 2.30L153.01 9.45L151.82 9.91L151.91 10.50L155.60 10.50L155.69 9.91L154.50 9.45L153.85 1.75L155.06 1.29L154.95 0.70L152.35 0.70L149.24 8.97L149.24 7.95L146.78 0.70L144.24 0.70L144.14 1.29L145.36 1.75L144.54 9.45L143.33 9.91L143.44 10.50L146.23 10.50L146.33 9.91L145.14 9.45L145.87 2.62L148.61 10.74L149.30 10.50ZM161.76 0.46C158.63 0.46 157.08 3.01 157.08 5.60C157.08 8.19 158.41 10.74 161.76 10.74C165.09 10.74 166.42 8.50 166.42 5.60C166.42 2.70 164.86 0.46 161.76 0.46ZM161.76 1.15C163.84 1.15 164.78 2.62 164.78 5.53C164.78 8.43 163.88 10.05 161.76 10.05C159.63 10.05 158.73 8.51 158.73 5.53C158.73 2.53 159.66 1.15 161.76 1.15ZM171.67 1.29C174.05 1.29 175.14 3.12 175.14 5.50C175.14 7.88 174.05 9.91 171.67 9.91L170.45 9.91L170.45 1.29ZM171.63 10.50C175.14 10.50 176.78 8.25 176.78 5.53C176.78 2.81 175.17 0.70 171.67 0.70L167.85 0.70L167.75 1.29L168.97 1.75L168.97 9.45L167.76 9.91L167.86 10.50ZM183.41 1.29L184.00 2.91L184.59 2.80L184.59 0.70L177.80 0.70L177.69 1.29L178.91 1.75L178.91 9.45L177.72 9.91L177.81 10.50L184.84 10.50L184.84 7.91L184.25 7.81L183.48 9.91L180.39 9.91L180.39 5.60L182.10 5.60L182.53 6.78L183.12 6.68L183.12 3.92L182.53 3.82L182.10 5.00L180.39 5.00L180.39 1.29ZM188.52 1.29L189.81 1.29C191.32 1.29 191.91 2.14 191.91 3.39C191.91 4.40 191.10 5.49 189.78 5.49L189.13 5.49L189.13 6.08L191.48 9.91L191.37 10.50L194.03 10.50L194.12 9.91L192.92 9.45L191.10 6.47L190.37 6.10C191.93 6.10 193.34 5.08 193.34 3.39C193.34 1.72 192.37 0.70 190.34 0.70L185.93 0.70L185.82 1.29L187.04 1.75L187.04 9.45L185.85 9.91L185.95 10.50L189.63 10.50L189.73 9.91L188.52 9.45ZM194.78 9.91L194.89 10.50L197.67 10.50L197.76 9.91L196.57 9.45L196.57 1.95L202.12 10.74L202.94 10.50L202.94 1.75L204.15 1.29L204.05 0.70L201.26 0.70L201.17 1.29L202.37 1.75L202.37 8.34L197.54 0.70L194.87 0.70L194.77 1.29L195.99 1.75L195.99 9.45ZM210.74 1.29L211.33 2.91L211.92 2.80L211.92 0.70L205.13 0.70L205.02 1.29L206.23 1.75L206.23 9.45L205.04 9.91L205.14 10.50L212.17 10.50L212.17 7.91L211.58 7.81L210.81 9.91L207.72 9.91L207.72 5.60L209.43 5.60L209.86 6.78L210.45 6.68L210.45 3.92L209.86 3.82L209.43 5.00L207.72 5.00L207.72 1.29Z"></path></g><!----><!----></svg>